<?xml version="1.0" standalone="no"?>
<!DOCTYPE svg PUBLIC "-//W3C//DTD SVG 1.1//EN" "http://www.w3.org/Graphics/SVG/1.1/DTD/svg11.dtd" >
<svg xmlns="http://www.w3.org/2000/svg" xmlns:xlink="http://www.w3.org/1999/xlink" version="1.1">
<metadata></metadata>
<defs>
<font id="vega_bregular" horiz-adv-x="1638" >
<font-face units-per-em="2048" ascent="1638" descent="-410" />
<missing-glyph horiz-adv-x="500" />
<glyph horiz-adv-x="0" />
<glyph horiz-adv-x="682" />
<glyph unicode=" " />
<glyph unicode="(" d="M205 817q0 -168 83.5 -309.5t223.5 -222.5v1069q-140 -81 -223.5 -224.5t-83.5 -312.5z" />
<glyph unicode=")" d="M1126 285q140 81 224 222.5t84 309.5q0 169 -84 312.5t-224 224.5v-1069z" />
<glyph unicode="+" d="M227 664h441l-2 -441q156 -41 309 0v441l440 2q42 147 0 307l-440 -2v440q-150 43 -307 4v-444h-441q-45 -153 0 -307z" />
<glyph unicode="-" d="M227 664l1188 2q42 147 0 307l-1188 -2q-45 -153 0 -307z" />
<glyph unicode="." d="M666 819q0 -63 45 -108t108 -45t108.5 45t45.5 108t-45.5 108.5t-108.5 45.5t-108 -45.5t-45 -108.5z" />
<glyph unicode="/" d="M287 514q80 -138 215 -221l852 833q-83 141 -217 220z" />
<glyph unicode="0" d="M205 821q0 125 48.5 238t131 195.5t196.5 131t240 48.5q124 0 238 -48.5t196 -130.5t130.5 -196t48.5 -238q0 -126 -48.5 -240t-131 -196.5t-195.5 -131t-238 -48.5q-126 0 -240 48.5t-196.5 131t-131 196.5t-48.5 240zM512 821q0 -129 90 -219t219 -90q126 0 215.5 90 t89.5 219q0 126 -89.5 215.5t-215.5 89.5q-129 0 -219 -89.5t-90 -215.5z" />
<glyph unicode="1" d="M285 1126h381v-901q70 -20 155 -20q79 0 152 18v1192q-78 19 -152 19q-169 0 -312 -84t-224 -224z" />
<glyph unicode="2" d="M285 512q81 -140 224 -223.5t312 -83.5q168 0 310 83.5t223 223.5h-629l627 614h2q-81 140 -223 224t-310 84q-169 0 -312 -84t-224 -224h628l-626 -614h-2z" />
<glyph unicode="3" d="M283 512q81 -140 222.5 -223.5t309.5 -83.5q169 0 312.5 83.5t224.5 223.5q8 33 8 76q0 109 -56.5 200.5t-148.5 139.5l199 198q-81 140 -223 224t-310 84q-169 0 -311 -83.5t-223 -224.5h622l-153 -153v-307h219q31 0 53.5 -22.5t22.5 -53.5q0 -32 -22.5 -55t-53.5 -23 h-692z" />
<glyph unicode="4" d="M205 819q0 -162 82 -307h530v-307h4q162 0 303 80v227h228q82 145 82 307h-310v535q-141 80 -307 80zM639 819l178 180v-180h-178z" />
<glyph unicode="5" d="M283 512q81 -140 222.5 -223.5t309.5 -83.5q169 0 312.5 83.5t224.5 223.5q8 33 8 76q0 160 -112.5 272.5t-272.5 112.5h-383v155h760q-81 140 -223 224t-310 84q-157 0 -296.5 -77.5t-239.5 -230.5v-462h692q31 0 53.5 -22.5t22.5 -53.5q0 -32 -22.5 -55t-53.5 -23h-692 z" />
<glyph unicode="6" d="M205 817q0 -168 83.5 -309.5t223.5 -222.5v2q145 -82 307 -82q170 0 311.5 83.5t221.5 223.5q8 33 8 76q0 160 -112.5 272.5t-272.5 112.5h-311q-79 0 -152 -31v184h842q-81 140 -224.5 224t-312.5 84q-166 0 -305 -82q-140 -79 -223.5 -222t-83.5 -313zM588 590 q0 31 22.5 53.5t53.5 22.5h311q31 0 53.5 -22.5t22.5 -53.5q0 -32 -22.5 -55t-53.5 -23h-311q-31 0 -53.5 23t-22.5 55z" />
<glyph unicode="7" d="M287 1126h622l-616 -618q78 -139 217 -217l844 835q-81 140 -223 224t-310 84q-169 0 -311 -83.5t-223 -224.5z" />
<glyph unicode="8" d="M248 594q67 -174 222.5 -281.5t348.5 -107.5t349 107.5t223 281.5q-3 107 -58.5 196.5t-148.5 139.5q20 53 20 121q0 160 -111.5 271.5t-271.5 111.5q-162 0 -274.5 -111.5t-112.5 -271.5q0 -65 21 -121q-93 -50 -148.5 -139.5t-58.5 -196.5zM557 590q0 32 22 55t54 23 h373q32 0 53.5 -22.5t21.5 -55.5q0 -32 -22 -56t-53 -24h-373q-32 0 -54 24.5t-22 55.5zM743 1049q0 32 22 54.5t54 22.5t54 -22.5t22 -54.5q0 -31 -22 -52.5t-54 -21.5t-54 21.5t-22 52.5z" />
<glyph unicode="9" d="M279 1051q0 -160 112.5 -272.5t272.5 -112.5h311q81 0 151 30v-184h-841q81 -140 224 -223.5t312 -83.5q166 0 305 82q140 79 224 222t84 312q0 168 -84 310t-224 223v-2q-145 82 -307 82q-170 0 -311 -84t-221 -224q-8 -33 -8 -75zM588 1049q0 32 22.5 54.5t53.5 22.5 h311q31 0 53.5 -22.5t22.5 -54.5q0 -31 -22.5 -53.5t-53.5 -22.5h-311q-31 0 -53.5 22.5t-22.5 53.5z" />
<glyph unicode="=" d="M223 973q46 180 189 307h815q142 -126 188 -307h-1192zM225 666h1188q-47 -185 -186 -308h-813q-142 123 -189 308z" />
<glyph unicode="A" d="M270 541q77 -158 234 -250l78 213h465l79 -217q151 88 236 245l-311 854q-111 48 -232 48q-129 0 -244 -50zM694 811l121 330l119 -330h-240z" />
<glyph unicode="B" d="M205 821q0 -126 48.5 -240t131 -196.5t196.5 -131t240 -48.5q193 0 348 107.5t222 281.5q-3 106 -58.5 196t-146.5 140q20 53 20 121q0 160 -111.5 271.5t-271.5 111.5h-2q-126 0 -240 -48.5t-196.5 -131t-131 -195.5t-48.5 -238zM514 510v158h494q32 0 53.5 -22.5 t21.5 -55.5q0 -32 -22 -56t-53 -24h-494zM514 975v151h309q32 0 54 -22.5t22 -54.5q0 -31 -22 -52.5t-54 -21.5h-309z" />
<glyph unicode="C" d="M205 821q0 -126 48.5 -240t131 -196.5t196.5 -131t240 -48.5q125 0 238 48.5t195.5 131t131 196.5t48.5 240h-308q0 -129 -89.5 -219t-217.5 -90t-217.5 90t-89.5 219q0 127 89 216t218 89h533q-79 135 -216 221.5t-319 86.5q-167 0 -308 -83.5t-222.5 -224.5t-81.5 -305 z" />
<glyph unicode="D" d="M285 512q81 -140 221.5 -223.5t308.5 -83.5t310 82t224.5 224t82.5 310q0 166 -82.5 307.5t-224.5 223.5t-310 82t-309.5 -84t-220.5 -224v-614zM592 512v614h223q129 0 219 -89.5t90 -215.5q0 -129 -90 -219t-219 -90h-223z" />
<glyph unicode="E" d="M287 512q89 -147 228.5 -227t303.5 -80q168 0 311 84.5t224 224.5h-760v154h391v307h-391v153h758q-81 141 -222.5 224.5t-308.5 83.5q-158 0 -299 -80t-235 -226v-618z" />
<glyph unicode="F" d="M287 512q122 -188 307 -262v416h391v307h-391v155h760q-81 140 -223 224t-310 84q-156 0 -295 -77.5t-239 -230.5v-616z" />
<glyph unicode="G" d="M205 821q0 -126 48.5 -240t131 -196.5t196.5 -131t240 -48.5q125 0 238 48.5t195.5 131t131 196.5t48.5 240h-613l219 -215q-88 -94 -219 -94q-129 0 -219 90t-90 219q0 126 90 215.5t219 89.5h535q-79 135 -216 221.5t-319 86.5q-126 0 -240 -48.5t-196.5 -131 t-131 -195.5t-48.5 -238z" />
<glyph unicode="H" d="M287 512q122 -189 307 -264v418h450v-418q186 75 308 264v614q-53 91 -132 160t-176 107v-420h-450v420q-194 -76 -307 -267v-614z" />
<glyph unicode="I" d="M285 512q81 -140 224 -223.5t312 -83.5q168 0 310 83.5t223 223.5h-381v614h381q-81 140 -223 224t-310 84q-169 0 -312 -84t-224 -224h381v-614h-381z" />
<glyph unicode="J" d="M285 512q81 -140 222.5 -223.5t309.5 -83.5q162 0 300.5 78.5t234.5 228.5v614q-53 91 -132 160t-176 107v-881h-759z" />
<glyph unicode="K" d="M285 510q122 -189 307 -264v420l426 -428q157 54 262 174l-408 407l408 414q-106 121 -264 168l-424 -428v418q-194 -76 -307 -267v-614z" />
<glyph unicode="L" d="M287 512q96 -150 234 -228.5t300 -78.5q168 0 310 83.5t223 223.5h-760v881q-194 -76 -307 -267v-614z" />
<glyph unicode="M" d="M205 821q0 -169 83.5 -312t223.5 -224v577l309 -364l305 364v-577q140 81 224 224t84 312q0 168 -84 310t-224 223l-305 -400l-309 400q-140 -81 -223.5 -223t-83.5 -310z" />
<glyph unicode="N" d="M205 821q0 -169 83.5 -312t223.5 -224v628l614 -626v-2q140 81 224 224t84 312q0 168 -84 310t-224 223v-629l-614 627v2q-140 -81 -223.5 -223t-83.5 -310z" />
<glyph unicode="O" d="M205 821q0 125 48.5 238t131 195.5t196.5 131t240 48.5q124 0 238 -48.5t196 -130.5t130.5 -196t48.5 -238q0 -126 -48.5 -240t-131 -196.5t-195.5 -131t-238 -48.5q-126 0 -240 48.5t-196.5 131t-131 196.5t-48.5 240zM512 821q0 -129 90 -219t219 -90q126 0 215.5 90 t89.5 219q0 126 -89.5 215.5t-215.5 89.5q-129 0 -219 -89.5t-90 -215.5z" />
<glyph unicode="P" d="M287 512q122 -189 307 -264v418h412q167 0 276 109t109 276q-90 192 -242.5 288.5t-327.5 96.5q-160 0 -307 -82t-227 -226v-616zM594 973v155h403q38 0 62 -22t24 -55t-24 -55.5t-62 -22.5h-403z" />
<glyph unicode="Q" d="M223 662q42 -158 160 -275q146 -147 349 -176q48 -7 94 -7q150 0 282 72v254h254q62 115 72 246q1 21 1 43q0 108 -39 213q-47 126 -145 223q-117 118 -275 160q-78 21 -157 21l-157 -21q-158 -42 -275 -160q-120 -119 -163 -277q-22 -81 -22 -161q0 -78 21 -155z M604 1038q89 89 215 89t215 -89q55 -55 78 -125q14 -46 14 -93q0 -25 -4 -50l-49 51h-256v-256l49 -49q-25 -4 -49 -4q-46 0 -92 14q-70 23 -125 78q-89 88 -89 213q0 128 93 221z" />
<glyph unicode="R" d="M205 821q0 -170 84 -312t225 -222v381h154l407 -408q146 65 240 195l-275 274q78 52 122 135.5t44 184.5v2q0 160 -111.5 271.5t-271.5 111.5h-2q-126 0 -240 -48.5t-196.5 -131t-131 -195.5t-48.5 -238zM514 975v151h309q32 0 54 -22.5t22 -54.5q0 -31 -22 -52.5 t-54 -21.5h-309z" />
<glyph unicode="S" d="M285 512q81 -140 222.5 -223.5t309.5 -83.5q169 0 312.5 83.5t224.5 223.5h-2l-627 614h629q-81 140 -224.5 224t-312.5 84q-168 0 -309.5 -84t-222.5 -224h2l626 -614h-628z" />
<glyph unicode="T" d="M287 1126h379v-903q73 -18 155 -18q79 0 152 18v903h379q-79 140 -221 224t-310 84q-169 0 -312 -84t-222 -224z" />
<glyph unicode="U" d="M205 821q0 -126 48.5 -240t131 -196.5t196.5 -131t240 -48.5q125 0 238 48.5t195.5 131t131 196.5t48.5 240q0 168 -84 310t-224 221v-531q0 -129 -89.5 -219t-215.5 -90q-129 0 -219 90t-90 219v531q-140 -81 -223.5 -222t-83.5 -309z" />
<glyph unicode="V" d="M270 1098l305 -844q113 -49 244 -49q123 0 232 47l311 854q-85 158 -236 246l-311 -854l-311 850q-157 -92 -234 -250z" />
<glyph unicode="W" d="M205 817q0 -168 83.5 -309.5t223.5 -222.5l309 399l305 -399q140 81 224 222.5t84 309.5q0 169 -84 312.5t-224 224.5v-578l-305 365l-309 -365v578q-140 -81 -223.5 -224.5t-83.5 -312.5z" />
<glyph unicode="X" d="M291 1133l313 -314l-311 -311q78 -139 217 -217l311 311l312 -313q139 82 217 219l-312 311l312 314q-76 134 -217 217l-312 -314l-311 312q-136 -77 -219 -215z" />
<glyph unicode="Y" d="M268 1092l396 -396v-475q77 -18 153.5 -18t153.5 18v461l403 403q-69 144 -196 236l-353 -352l-356 356q-133 -91 -201 -233z" />
<glyph unicode="Z" d="M285 512q81 -140 224 -223.5t312 -83.5q168 0 310 83.5t223 223.5h-629l627 614h2q-81 140 -223 224t-310 84q-169 0 -312 -84t-224 -224h628l-626 -614h-2z" />
<glyph unicode="&#xa0;" />
<glyph unicode="&#xad;" d="M227 664l1188 2q42 147 0 307l-1188 -2q-45 -153 0 -307z" />
<glyph unicode="&#xb7;" d="M205 821q0 125 48.5 238t131 195.5t196.5 131t240 48.5q124 0 238 -48.5t196 -130.5t130.5 -196t48.5 -238q0 -126 -48.5 -240t-131 -196.5t-195.5 -131t-238 -48.5q-126 0 -240 48.5t-196.5 131t-131 196.5t-48.5 240z" />
<glyph unicode="&#x2000;" horiz-adv-x="718" />
<glyph unicode="&#x2001;" horiz-adv-x="1436" />
<glyph unicode="&#x2002;" horiz-adv-x="718" />
<glyph unicode="&#x2003;" horiz-adv-x="1436" />
<glyph unicode="&#x2004;" horiz-adv-x="478" />
<glyph unicode="&#x2005;" horiz-adv-x="359" />
<glyph unicode="&#x2006;" horiz-adv-x="239" />
<glyph unicode="&#x2007;" horiz-adv-x="239" />
<glyph unicode="&#x2008;" horiz-adv-x="179" />
<glyph unicode="&#x2009;" horiz-adv-x="287" />
<glyph unicode="&#x200a;" horiz-adv-x="79" />
<glyph unicode="&#x2010;" d="M227 664l1188 2q42 147 0 307l-1188 -2q-45 -153 0 -307z" />
<glyph unicode="&#x2011;" d="M227 664l1188 2q42 147 0 307l-1188 -2q-45 -153 0 -307z" />
<glyph unicode="&#x2012;" d="M227 664l1188 2q42 147 0 307l-1188 -2q-45 -153 0 -307z" />
<glyph unicode="&#x2013;" d="M227 664l1188 2q42 147 0 307l-1188 -2q-45 -153 0 -307z" />
<glyph unicode="&#x2014;" horiz-adv-x="2454" d="M241 664l1976 2q70 147 0 307l-1976 -2q-74 -153 0 -307z" />
<glyph unicode="&#x2022;" d="M512 821q0 -129 90 -219t219 -90q126 0 215.5 90t89.5 219q0 126 -89.5 215.5t-215.5 89.5q-129 0 -219 -89.5t-90 -215.5z" />
<glyph unicode="&#x202f;" horiz-adv-x="287" />
<glyph unicode="&#x205f;" horiz-adv-x="359" />
<glyph unicode="&#x25fc;" horiz-adv-x="1024" d="M0 0z" />
</font>
</defs>
</svg>
